<svg aria-hidden="true" style="position: absolute; width: 0; height: 0; overflow: hidden;" version="1.1" xmlns="http://www.w3.org/2000/svg" xmlns:xlink="http://www.w3.org/1999/xlink">
<defs>
<symbol id="question" viewBox="0 0 19 32">
<path fill="#fbfbfb" style="fill: var(--color1, #fbfbfb)" d="M4.303 9.143c0-2.521 1.929-4.571 4.303-4.571h2.151c2.373 0 4.303 2.050 4.303 4.571v0.257c0 1.557-0.746 3.007-1.976 3.843l-2.837 1.936c-0.833 0.569-1.518 1.351-1.993 2.275s-0.723 1.959-0.723 3.011v0.107c0 1.264 0.961 2.286 2.151 2.286s2.151-1.021 2.151-2.286v-0.1c0-0.586 0.282-1.129 0.739-1.443l2.837-1.936c2.46-1.686 3.953-4.579 3.953-7.693v-0.257c0-5.050-3.852-9.143-8.605-9.143h-2.151c-4.753 0-8.605 4.093-8.605 9.143 0 1.264 0.961 2.286 2.151 2.286s2.151-1.021 2.151-2.286zM9.681 32c0.713 0 1.397-0.301 1.901-0.837s0.788-1.263 0.788-2.020c0-0.758-0.283-1.485-0.788-2.020s-1.188-0.837-1.901-0.837-1.397 0.301-1.901 0.837c-0.504 0.536-0.788 1.263-0.788 2.020s0.283 1.484 0.788 2.020 1.188 0.837 1.901 0.837z"></path>
</symbol>
<symbol id="users" viewBox="0 0 32 32">
<path fill="#fbfbfb" style="fill: var(--color1, #fbfbfb)" d="M18.797 22.385l-0.564 2.103-14.722-3.945 0.564-2.103c0 0 1.127-4.206 8.488-2.234s6.234 6.179 6.234 6.179zM17.794 11.409c0.195-0.728 0.17-1.497-0.072-2.211s-0.691-1.339-1.289-1.798c-0.598-0.459-1.318-0.73-2.070-0.779s-1.502 0.126-2.154 0.502c-0.653 0.377-1.179 0.939-1.512 1.615s-0.459 1.435-0.36 2.183c0.098 0.747 0.416 1.448 0.913 2.015s1.151 0.973 1.879 1.168c0.976 0.262 2.016 0.125 2.891-0.381s1.514-1.338 1.775-2.314zM19.861 18.162c0.512 0.674 0.871 1.451 1.050 2.278s0.176 1.683-0.011 2.509l-0.564 2.103 4.206 1.127 0.564-2.103c0 0 1.023-3.817-5.245-5.914zM21.409 8.433c-0.723-0.198-1.489-0.171-2.196 0.077 0.4 1.064 0.456 2.226 0.162 3.323s-0.924 2.075-1.802 2.797c0.488 0.568 1.138 0.974 1.863 1.164 0.976 0.262 2.016 0.125 2.891-0.381s1.514-1.338 1.775-2.314c0.261-0.976 0.125-2.016-0.381-2.891s-1.338-1.514-2.314-1.775z"></path>
</symbol>
<symbol id="check" viewBox="0 0 43 32">
<path fill="#54be96" style="fill: var(--color2, #54be96)" d="M5.333 10.667l-5.333 5.333 16 16 26.667-26.667-5.333-5.333-21.333 21.333-10.667-10.667z"></path>
</symbol>
<symbol id="arrow" viewBox="0 0 28 32">
<path fill="#fbfbfb" style="fill: var(--color1, #fbfbfb)" d="M0 29.589l3.199 2.411 21.696-28.791-3.199-2.411-21.695 28.791zM21.59 4.266l-13.883 1.951c-1.111 0.156-2.106-0.594-2.262-1.705s0.594-2.106 1.705-2.262l15.866-2.23c1.111-0.156 2.106 0.594 2.262 1.705l2.23 15.866c0.156 1.111-0.594 2.106-1.705 2.262s-2.106-0.594-2.262-1.705l-1.951-13.883z"></path>
</symbol>
</defs>
</svg>
